<?xml version="1.0" encoding="UTF-8" standalone="no"?>
<svg xmlns="http://www.w3.org/2000/svg" viewBox="0 0 1024 1024" text-rendering="geometricPrecision" shape-rendering="geometricPrecision" fill="#243b51" preserveAspectRatio="xMaxYMax slice">
  <ellipse data-px-label="Border Ring" fill="#243b51" stroke="#003a73" transform="translate(512, 512)" rx="507.6903" ry="507.6903"/>
  <g>
    <ellipse data-px-label="Inner Ring" fill="#efe6de" stroke="#003a73" transform="translate(511.9999, 511.9999)" rx="497.1537" ry="497.1537"/>
    <path fill="#002157" d="M275.1,506.1L275.1,150.3C275.1,148.7,274.7,146.4,275.5,145.6C276.4,144.7,278.6,145.2,280.2,145.2L307.7,145.2C310.4,145.2,311.7,146.1,312.8,148.5C317.4,158.1,322.5,167.5,326.9,177.2C328.7,181.3,331.2,185,332.7,189.3C334.2,193.5,336.6,197.3,338.6,201.3C340.5,205.2,342.4,209.1,344.3,212.9C346.3,216.9,348.1,221,350.4,224.8C351.9,227.2,352.1,230.1,354.1,232.3C355.9,234.3,355.9,237.3,357.2,239.5C360.4,244.8,362.6,250.6,365.5,256.1C368.3,261.4,371,266.8,373.6,272.2C374.6,274.3,375.7,276.2,376.3,278.6C376.9,281.2,379.4,283.2,380.4,285.9C382.2,290.9,384.8,295.4,387.1,300.1C391.2,308.4,395.4,316.6,399.4,325C401.7,329.9,404.1,334.7,406.4,339.6C408.5,344,410.5,348.6,413.1,352.9C415.6,357.1,417.5,361.7,419.7,366.2C422.2,371.2,424.8,376.1,427.2,381.1C428.5,383.9,429.4,386.8,431,389.5C433.6,393.9,435.4,398.7,437.7,403.2C440.1,407.7,442.2,412.3,444.4,416.9C446.6,421.5,449,426,451.2,430.6C452.8,433.9,454.5,437.2,456.1,440.6C457.7,443.9,459.3,447.3,461,450.6C462.7,453.7,464.1,457,465.6,460.2C467.2,463.5,468.9,466.8,470.5,470.2C471.2,471.7,472.3,473.1,472.4,475C472.4,475.5,473.2,476.4,474.2,476.4C475.2,476.4,474.9,475.6,475.1,475C479,467.1,483.4,459.5,486.9,451.4C488.9,446.9,491.4,442.6,493.2,438C495,433.3,497.8,428.9,500.1,424.4C502.4,420,504.9,415.7,506.7,411.2C508.5,406.7,510.8,402.6,513,398.3C516,392.4,518.4,386.2,521.6,380.4C524.8,374.6,527.7,368.6,530.4,362.6C532.3,358.2,535.1,354.3,536.6,349.6C537.3,347.3,538.8,345.2,540.1,343.1C541.6,340.6,542.4,337.7,543.8,335.1C547.7,327.9,551.5,320.7,554.7,313.1C556.5,308.8,559.2,305,560.6,300.5C561.4,297.9,563.7,295.8,564.6,293.2C565.5,290.7,566.7,288.4,567.9,286C573.3,275.4,578.8,264.9,583.7,254.1C585.6,249.9,587.7,245.8,589.5,241.5C591.4,237.3,593.7,233.2,595.8,229.1L601.8,217.1C603.9,213,606.2,208.9,607.9,204.6C609.2,201.3,610.9,198.2,612.2,194.9C613.6,191.5,615.6,188.3,617.1,184.9C618.6,181.7,620.4,178.6,622,175.4C623.6,172.3,625.7,169.2,626.8,165.9C628.3,161.4,631.4,157.9,632.6,153.3C633.2,150.9,635.5,149.3,636.2,146.8C636.5,145.8,637.7,145.3,639,145.4L671,145.4C672.6,145.4,673.6,146,673.9,147.4C675.1,152.4,678.1,156.7,680.3,161.2C684.3,169.6,688.9,177.6,692.8,186C694.4,189.4,696.6,192.5,697.7,195.9C698.9,199.6,700.9,202.9,702.5,206.4C704,209.8,705.8,213,707.4,216.4C709.1,219.8,710.9,223.3,712.7,226.7C714.4,230,716.1,233.3,717.6,236.7C719.9,241.8,722.2,246.8,724.7,251.8C727.3,256.9,729.6,262.1,732.2,267.2C734.7,272.2,737.7,276.9,739.8,282.1C741.6,286.7,744,291,746.1,295.5C748.8,301.4,751.6,307.3,754.8,312.9C758,318.5,760.8,324.4,763.3,330.4C765.6,336,768.8,341.1,771.2,346.6C773.3,351.5,775.8,356.4,778.2,361.2C780.6,365.9,782.9,370.6,785.3,375.3C786.7,378.2,788.6,380.9,789.3,384.2C789.7,385.8,791,387.1,792,388.6C793.6,390.9,793.7,393.9,795.3,396.2C798.2,400.6,799.8,405.7,802.3,410.3C804.8,415.1,807.3,419.9,809.7,424.7C812.1,429.4,814.8,433.9,816.7,438.8C818.5,443.6,821.2,447.9,823.1,452.6C825.1,457.4,827.7,462,830,466.7C832.3,471.2,834.9,475.7,836.9,480.3C839.4,486.1,842.3,491.7,845,497.4C846.2,500,846.8,503,848.6,505.4C849.3,506.3,848.6,506.8,848.4,507.5C847.9,509.7,846.9,511.6,846,513.5C840.4,525,834.6,536.4,829.2,548C822.5,562.4,815.1,576.5,808.2,590.8C806.6,594.2,804.5,597.5,803.4,601.3C802.9,603,802,604.7,800.7,606.2C798.8,608.5,798.5,611.6,797.1,614.2C793,621.8,789,629.5,785.6,637.4C783.2,642.9,779.4,647.8,778.1,653.8C774.3,659.1,772.3,665.4,769.2,671.1C766.1,676.6,763.5,682.4,760.8,688.1C758.6,693,756.1,697.8,753.8,702.7C751.7,707.1,749.7,711.7,747.1,716C744.6,720.2,742.8,724.9,740.5,729.3C737.7,734.8,734.3,740.1,732.2,745.8C728.9,754.3,724.4,762.2,720.4,770.4C716.4,778.6,711.7,786.5,708.2,794.9C706.2,799.6,703.5,803.9,701.9,808.8C700.3,813.6,697.4,817.9,695.1,822.5C692.8,827,690,831.4,688.2,836.1C686.6,840.3,683.5,843.8,682.6,848.3C678.9,853.3,677.5,859.5,674.3,864.9C673.1,866.8,672.2,867.4,670.3,867.4L642.8,867.4C641.2,867.4,639.5,866.8,638.1,868C637.8,868.3,637.6,868.5,637.4,868C636.1,866,633.4,865.6,632.2,863.7C631.1,861.9,629.3,861,627.9,859.6C626.4,858,624.8,856.5,623.3,855L618.4,850.1L613.8,845.5C612.3,844,610.9,842.3,609.2,840.9C599.3,833,591.5,823.1,582,814.8C574,807.8,567,799.9,559.1,792.8C549.8,784.4,540.9,775.5,532.1,766.6C530.8,765.3,528.9,764.6,528,763.3C525.6,759.7,521.7,757.9,519,754.7C516.2,751.4,513,748.4,509.8,745.5C507.4,743.3,505.7,740.3,502.5,739.1C501.4,735.8,497.8,735,495.8,732.5C493.7,729.8,490.9,727.5,488.5,725C486.1,722.6,483.8,720.3,481.4,717.9C478.9,715.3,476,713.2,473.4,710.7C470.8,708.2,468,705.9,465.5,703.1C463.1,700.4,460.4,697.9,457.8,695.3C455.2,692.7,452.8,689.8,450,687.6C441.6,681,435,672.7,427.1,665.7C417.7,657.4,409.1,648.3,399.9,639.7C397.9,637.9,396.5,635.5,393.9,634.1C391.4,632.7,389.5,630.1,387.4,628L381.4,622C379.3,619.9,377.2,617.7,375,615.6C369.8,610.6,364.4,605.8,359.2,600.8C353.8,595.6,348.9,589.8,343.2,585C334.8,578,327.6,569.8,319.7,562.2C318.5,561,317,560.5,315.8,559.4C314.3,558.1,313,556.6,311.5,555.2C310.5,557.2,311,559.4,311,561.5L311,861.9C311,863.5,311.5,865.6,310.6,866.7C309.7,867.8,307.5,867.1,305.9,867.1L276.9,867.1C275.4,867.1,274.8,866.7,275,865.2C275.1,864,275,862.9,275,861.7L275,506L275.1,506.1zM279.1,506.3L279.1,862.1C279.1,863.3,279.3,863.9,280.7,863.9L305.7,863.9C306.7,863.9,307.2,863.6,307.1,862.5L307.1,554.6C306.9,552.7,308.4,551.7,309.5,551.2C310.8,550.6,312.7,550.3,314.1,551.5C317.5,554.5,321,557.4,324.2,560.6C333.4,569.6,342.4,578.8,352,587.4C360.1,594.7,367.3,602.9,375.6,610.1C384.8,618.1,392.5,627.8,402.1,635.5C404,637,405.7,639,407.4,640.8L412.7,646.1C414.5,647.9,416.1,649.7,418,651.4C419.8,653,420.9,655.5,423.6,656C423.9,658.9,426.9,659.2,428.5,660.8C437.9,670.3,447.3,679.8,457.3,688.8C465.8,696.6,473.7,705,482.2,712.8C492.2,721.9,501.4,731.9,511.5,740.9C519.3,747.8,526.1,755.6,534,762.5C543.7,771,552,780.9,561.9,789.2C563.8,790.8,565.5,792.7,567.2,794.5L572.5,799.8C574.1,801.4,575.8,803.1,577.5,804.7C579.2,806.4,580.7,808.4,583,809.3C583.3,812.3,586.4,812.4,588,814.1C590,816.3,592.2,818.4,594.3,820.5L600.7,826.9C602.7,828.9,604.9,830.7,606.7,833C608.5,835.3,611.5,836.1,613.2,838.7C614.7,841,617.3,842.6,619.4,844.6C625.8,850.6,631.4,857.4,638.4,862.7C639.4,863.4,640.2,863.9,641.4,863.9C649.7,863.9,658.1,863.7,666.4,863.9C668.7,863.9,669.9,862.8,670.8,861.4C671.2,860.7,671.7,859.8,672.1,859C673.7,855.8,675.4,852.7,676.9,849.5C678.4,846.5,679.4,843.1,681.2,840.3C683.3,837.3,684.1,833.8,685.6,830.6C693.5,814.9,701.4,799.1,708.9,783.2C716.9,766.3,726,750,733.4,732.9C735.7,727.7,738.3,722.6,740.9,717.5C743.5,712.4,746.5,707.5,748.8,702.3C751.1,697.1,753.9,692.1,756,686.8C757.5,683.1,759.7,679.7,761.4,676C765,668.2,768.9,660.5,773,652.8C774.4,650.2,774.7,647.1,776.6,644.8C777.9,643.3,778.8,641.7,779.3,639.9C780.5,635.3,783.5,631.7,785.2,627.3C787,622.6,789.7,618.2,792,613.6C794.3,609.2,797,605,798.7,600.4C800.6,595.6,803.4,591.4,805.1,586.5C806.7,582,809.4,578,811.5,573.7C818.3,559.9,825.2,546,831.9,532.2C834.7,526.4,837.6,520.6,840,514.6C840.9,512.3,842.1,510.1,843.4,508C844.1,506.9,844,506.1,843.4,504.9C841.4,499,838.2,493.7,835.7,488.1C829.6,474.5,822.3,461.4,816.1,447.8C811.8,438.4,806.9,429.3,802.4,420C797.8,410.7,793.4,401.4,788.9,392.1C780.7,375.4,772.2,358.7,764.3,341.8C761.6,336.1,759,330.3,755.9,324.8C752.8,319.1,750.8,312.8,747,307.5C746.1,302.4,742.7,298.3,740.8,293.6C739.2,289.5,736.8,285.6,734.9,281.6C733,277.4,730.7,273.3,728.6,269.2C726.6,265.2,724.2,261.3,722.7,257.2C721.2,252.8,718.3,249.1,716.8,244.6C715.6,241.2,713.6,237.9,711.9,234.7C710.1,231.3,708.4,227.8,706.7,224.3C705.1,221,703.5,217.6,701.7,214.4C699.8,211,698.7,207.2,696.8,203.9C694.9,200.7,693.7,197.2,692,193.9C688.2,186.8,684.6,179.6,681,172.5C677.4,165.3,674.5,157.8,670.4,150.9C669.7,149.7,669.3,149,667.7,149C659.7,149.1,651.7,149.2,643.7,149C640.7,149,639,149.8,637.8,152.7C635.8,157.5,633.4,162.2,631.1,166.9C629.8,169.5,628.4,172.1,627.1,174.7C625.7,177.5,624.5,180.3,623.1,183C621.8,185.6,620.4,188.2,619.1,190.8C617.8,193.4,616.4,196,615.1,198.6C613.8,201.4,613,204.6,611.2,207C609.3,209.5,609,212.5,607.5,215C605.1,219,603.2,223.2,601.1,227.3C599,231.4,597.1,235.6,595.1,239.8C593.1,244,591.1,248.1,589.1,252.3C587.1,256.5,584.8,260.5,583,264.8C580.6,270.5,577.7,275.9,574.9,281.5C572.1,287,569,292.4,566.5,298C564,303.6,561,309,558.6,314.7C556.2,320.2,553.2,325.5,550.6,330.9C548,336.1,545.3,341.4,542.8,346.7C540.3,352.1,537.3,357.4,535,363C533.2,367.3,531.1,371.4,528.9,375.5C526.8,379.5,524.8,383.4,522.9,387.5C521,391.7,518.5,395.7,516.6,399.9C514.7,404.1,512.7,408.3,510.7,412.5C506.9,420.6,502.8,428.6,498.8,436.5C494.7,444.6,490.7,452.8,487,461.1C486.2,462.8,484.6,464.2,484.1,465.9C483,469.8,480.6,473.1,479,476.8C478.3,478.4,477,479.4,475.8,480.4C474.8,481.3,473.2,481.3,472.2,480.4C471,479.4,469.7,478.4,468.9,476.8C467.6,474.1,466.3,471.6,464.9,469C463.6,466.5,462.4,464,461.1,461.6C459.8,459,458.1,456.5,457.3,453.7C456.4,450.8,454.1,448.7,453.3,445.8C452,441.1,449.2,437.2,447.2,432.8C441,419.3,434,406.3,427.7,392.9C418.9,374,409.1,355.6,400.2,336.8C392.3,320.1,383.6,303.7,375.8,286.9C373.8,282.6,371.6,278.3,369.5,274C367.3,269.7,364.7,265.6,362.9,261.2C361,256.6,358.3,252.5,356.7,247.8C355.2,243.3,352.4,239.3,350.3,235C342.7,219,334.7,203.1,326.8,187.3C320.8,175.3,314.7,163.3,308.9,151.2C308,149.4,307.1,148.9,305.3,148.9L284.3,148.9C282.5,148.9,280.2,148,279.1,149.4C278.3,150.4,278.8,152.6,278.8,154.2L278.8,506L279,506.3L279.1,506.3z"/>
    <path fill="#101820" d="M279.1,506.3L279.1,154.5C279.1,152.8,278.5,150.7,279.4,149.7C280.5,148.4,282.8,149.2,284.6,149.2L305.6,149.2C307.4,149.2,308.3,149.7,309.2,151.5C315,163.6,321.1,175.5,327.1,187.6C335,203.5,343,219.3,350.6,235.3C352.7,239.6,355.4,243.7,357,248.1C358.6,252.8,361.3,257,363.2,261.5C365,265.9,367.6,270,369.8,274.3C372,278.6,374.1,282.8,376.1,287.2C383.9,304,392.5,320.4,400.5,337.1C409.4,355.9,419.2,374.3,428,393.2C434.3,406.6,441.3,419.6,447.5,433.1C449.5,437.4,452.3,441.4,453.6,446.1C454.4,448.9,456.7,451,457.6,454C458.4,456.8,460.1,459.3,461.4,461.9C462.6,464.4,463.9,466.9,465.2,469.3C466.5,471.9,467.9,474.5,469.2,477.1C469.9,478.7,471.2,479.7,472.5,480.7C473.5,481.5,475.1,481.5,476.1,480.7C477.3,479.7,478.6,478.7,479.3,477.1C480.8,473.4,483.2,470.1,484.4,466.2C484.9,464.5,486.5,463.1,487.3,461.4C491,453.1,495,444.9,499.1,436.8C503.1,428.8,507.3,420.9,511,412.8C512.9,408.6,515,404.5,516.9,400.2C518.8,396,521.2,392,523.2,387.8C525.1,383.7,527.1,379.8,529.2,375.8C531.4,371.7,533.5,367.6,535.3,363.3C537.6,357.7,540.5,352.5,543.1,347C545.6,341.7,548.2,336.5,550.9,331.2C553.6,325.8,556.6,320.6,558.9,315C561.3,309.3,564.3,303.9,566.8,298.3C569.3,292.7,572.4,287.3,575.2,281.8C578,276.3,580.9,270.8,583.3,265.1C585.1,260.8,587.4,256.8,589.4,252.6C591.4,248.4,593.4,244.3,595.4,240.1C597.4,235.9,599.4,231.7,601.4,227.6C603.5,223.5,605.5,219.3,607.8,215.3C609.3,212.7,609.6,209.8,611.5,207.3C613.3,204.9,614,201.7,615.4,198.9C616.7,196.2,618,193.7,619.4,191.1C620.7,188.5,622.1,185.9,623.4,183.3C624.8,180.5,626,177.7,627.4,175C628.7,172.4,630.1,169.8,631.4,167.2C633.7,162.5,636.1,157.8,638.1,153C639.3,150.1,641.1,149.2,644,149.3C652,149.4,660,149.4,668,149.3C669.6,149.3,670,149.9,670.7,151.2C674.8,158.1,677.7,165.6,681.3,172.8C684.9,180,688.5,187.1,692.3,194.2C694,197.5,695.2,201,697.1,204.2C699,207.5,700.1,211.3,702,214.7C703.8,217.9,705.3,221.3,707,224.6C708.7,228.1,710.4,231.5,712.2,235C713.9,238.3,715.9,241.5,717.1,244.9C718.7,249.3,721.5,253,723,257.5C724.5,261.7,726.9,265.6,728.9,269.5C731,273.6,733.3,277.7,735.2,281.9C737.1,286,739.5,289.8,741.1,293.9C742.9,298.7,746.3,302.7,747.3,307.8C751.1,313.2,753.1,319.4,756.2,325.1C759.3,330.6,761.9,336.4,764.6,342.1C772.6,359,781,375.6,789.2,392.4C793.8,401.7,798.2,411,802.7,420.3C807.3,429.6,812.1,438.7,816.4,448.1C822.6,461.7,829.9,474.8,836,488.4C838.5,494,841.7,499.4,843.7,505.2C844.1,506.4,844.2,507.2,843.7,508.3C842.4,510.4,841.2,512.6,840.3,514.9C838,520.9,835.1,526.7,832.2,532.5C825.5,546.4,818.6,560.2,811.8,574C809.7,578.3,806.9,582.3,805.4,586.8C803.7,591.7,800.9,595.9,799,600.7C797.2,605.3,794.5,609.5,792.3,613.9C790,618.4,787.2,622.8,785.5,627.6C783.9,632,780.9,635.6,779.6,640.2C779.1,641.9,778.2,643.6,776.9,645.1C775,647.4,774.7,650.5,773.3,653.1C769.2,660.7,765.3,668.4,761.7,676.3C760,680,757.8,683.3,756.3,687.1C754.2,692.4,751.4,697.4,749.1,702.6C746.8,707.8,743.8,712.7,741.2,717.8C738.6,722.9,736,727.9,733.7,733.2C726.3,750.3,717.1,766.6,709.2,783.5C701.7,799.4,693.8,815.2,685.9,830.9C684.3,834.1,683.5,837.6,681.5,840.6C679.6,843.4,678.6,846.7,677.2,849.8C675.7,853,673.9,856.1,672.4,859.3C672,860.1,671.6,861,671.1,861.7C670.2,863.1,668.9,864.3,666.7,864.2C658.4,864,650,864.2,641.7,864.2C640.5,864.2,639.6,863.8,638.7,863C631.7,857.7,626.1,850.9,619.7,844.9C617.6,842.9,615.1,841.3,613.5,839C611.8,836.4,608.8,835.6,607,833.3C605.3,831.1,603.1,829.3,601,827.2L594.6,820.8C592.5,818.7,590.3,816.6,588.3,814.4C586.7,812.7,583.6,812.6,583.3,809.6C581,808.6,579.5,806.7,577.8,805C576.1,803.4,574.5,801.7,572.8,800.1L567.5,794.8C565.7,793,564.1,791.1,562.2,789.5C552.3,781.2,544,771.3,534.3,762.8C526.5,755.9,519.6,748.1,511.8,741.2C501.7,732.2,492.5,722.2,482.5,713.1C474,705.3,466.1,696.8,457.6,689.1C447.7,680.1,438.2,670.7,428.8,661.1C427.2,659.5,424.2,659.2,423.9,656.3C421.2,655.8,420.2,653.2,418.3,651.7C416.4,650.1,414.7,648.2,413,646.4L407.7,641.1C405.9,639.3,404.3,637.4,402.4,635.8C392.8,628.2,385.1,618.4,375.9,610.4C367.6,603.2,360.4,595,352.3,587.7C342.7,579.1,333.7,569.9,324.5,560.9C321.3,557.7,317.8,554.8,314.4,551.8C313,550.6,311.1,550.9,309.8,551.5C308.7,552,307.2,553,307.4,554.9C307.5,556.1,307.4,557.2,307.4,558.4L307.4,862.8C307.4,863.9,307,864.2,306,864.2L281,864.2C279.6,864.2,279.3,863.6,279.4,862.4L279.4,506.6L279.2,506.3L279.1,506.3zM591,771.4C590.8,770.3,591.6,768.8,590.6,768.1C588.8,766.7,588.9,764.4,588,762.6C587.2,760.7,585.9,759.2,584.9,757.4C581.2,750.9,578.2,744.1,574.5,737.7C570.2,730.2,566.6,722.3,562.4,714.7C558.2,707.1,554.7,699.2,550.4,691.7C546.2,684.2,542.5,676.3,538.3,668.7C534.1,661.1,530.7,653.2,526.3,645.7C522.9,639.9,520.4,633.5,516.9,627.6C515.3,624.8,514,621.8,512.4,619C510.7,616,509.3,612.9,507.6,610C506,607.2,504.3,604.4,502.9,601.4C499.7,594.7,496.4,588.1,492.8,581.6C488.3,573.6,484.4,565.4,480,557.4C476.4,551,473.5,544.1,469.8,537.7C465.6,530.5,462.2,522.9,458.1,515.5C452.2,504.9,447.1,493.7,441.9,482.8C438.8,476.3,435.9,469.6,432.9,463.1C430.4,457.6,427.5,452.4,425.1,446.8C421.5,438.5,417.7,430.2,413.8,422C409.1,412.3,404.6,402.5,400.1,392.7C394.7,381.1,389.3,369.5,383.9,357.9C379.2,347.9,374.6,337.8,369.9,327.7C368.1,323.8,366,319.9,364.2,316.1C361.5,310.2,358.7,304.4,356,298.5C354.1,294.4,352.8,290.1,350,286.5C349.1,280.9,345.2,276.6,343.5,271.2C342.1,266.7,339.5,262.5,337.5,258.2C332.5,247.6,327.3,237.1,322.8,226.3C321.1,222.3,319.1,218.5,317,214.7C316.4,213.6,316.2,212.4,315.1,211.5C313.9,210.4,309.9,209.1,308.8,210.1C307.8,211,306.8,212.5,307.1,214.3C307.2,215.3,307.1,216.3,307.1,217.3L307.1,503.6C307.1,504.4,307.2,505.3,307.1,506.1C306.8,508,307.7,509.1,309,510.3C310.8,512,313.1,512.9,314.7,514.8C316.4,516.8,318.4,518.6,320.3,520.5L325.6,525.8C327.4,527.6,329.3,529.6,331.3,531.4C333.1,533,334.3,535.3,336.9,536C337.4,539,340.4,539.5,342.1,541.2L348.1,547.2L354.1,553.2L360.1,559.2C362,561.1,364.5,562.7,365.9,564.7C367.6,567.1,370.1,568.1,372,570C381.7,579.5,390.8,589.6,401.1,598.4C409.3,605.4,416.2,613.6,424.3,620.7C434.4,629.5,443.1,639.8,453.2,648.6C463.4,657.5,472.2,667.9,482.5,676.9C492.5,685.6,501.2,695.6,511,704.5C522.2,714.6,532.2,725.9,543.5,735.9C547.1,739.1,550.4,742.6,553.8,746.1C563.2,755.9,573.9,764.3,583,774.4C585,776.6,587.3,775.5,589.4,775.5C591.5,775.5,590.8,774.7,590.8,773.7L590.8,771.2L591,771.4zM668.9,501.4L668.9,799.7C668.9,802.2,669.6,802.7,672.1,802.9C673.7,802.9,674.8,802.5,676,801.4C677.3,800.1,678,798.6,678.9,797.1C680.1,795.1,680.4,792.8,681.5,790.7C684,785.9,686.1,780.9,688.4,776.1C692.7,767,696.7,757.9,701,748.9C705.7,739.2,710.3,729.4,714.8,719.6C719.5,709.4,724.5,699.3,728.9,689C731.3,683.5,734.3,678.3,736.7,672.7C740.6,663.8,744.7,655,748.8,646.3C753.5,636.3,758.2,626.2,762.9,616.2C767.6,606.3,772.2,596.4,776.8,586.5C781.8,575.7,787.1,565.1,791.8,554.2C793.9,549.3,796.5,544.5,798.8,539.6C803.2,530.1,807.5,520.5,811.8,511C813.3,507.8,813.3,504.6,811.8,501.3C810.6,498.6,809.4,496,808.3,493.3C805.4,486.2,802,479.2,798.8,472.3C795.6,465.3,792.3,458.3,789.3,451.3C786.3,444.4,783,437.6,779.8,430.7C776.6,423.6,773.4,416.3,770.2,409.2C767.2,402.5,764.1,395.8,761,389C758,382.4,755.2,375.8,752.1,369.2C748,360.2,744.1,351.2,740.1,342.2C737.2,335.6,734.3,328.9,731.2,322.4C727.6,314.7,724.3,306.9,720.7,299.3C719.8,297.5,718.5,295.8,717.9,294C715.1,285.7,710.6,278,707.5,269.8C706.2,266.4,704.2,263.2,702.8,259.7C701.4,256.3,698.9,253.3,698.4,249.5C693.6,241,690.7,231.7,686,223.1C685.5,222.2,685,221.2,684.7,220.2C682.4,214,679.2,208.2,676.7,202C676.3,201,675.5,200.3,674.1,200.2C669.4,199.9,668.8,200.4,668.7,205.3L668.7,501.6L668.9,501.4zM641,509.4L641,213.1C641,210.9,639.2,209.4,637,209.1C634.5,208.8,633,210,632,212.1C630.9,214.5,630.2,217,628.9,219.3C623.9,228.7,619.6,238.4,615.3,248.2C613,253.4,610.2,258.4,608,263.7C605.7,269.1,603,274.3,600.7,279.7C598.4,285.1,595.7,290.3,593.2,295.6C589,304.4,585.1,313.3,581,322C576.2,332,571.6,342.1,566.9,352.1C562.3,362,557.6,371.9,553,381.8C548.3,391.8,543.6,401.9,538.9,412C535.4,419.7,532,427.5,528.1,435C524.4,442.2,521.4,449.9,518,457.3C515.5,462.6,512.7,467.7,510.5,473.2C507.8,479.7,504.6,486.1,501.3,492.4C499.6,495.7,499.4,498.8,501.3,501.9C503.2,505.1,504.5,508.6,505.9,512C507.9,516.8,510,521.6,511.9,526.5C513.8,531.4,516.1,536.1,518.2,540.9C518.5,541.5,518.9,541.8,519.1,542.5C521.1,549.7,525,556,527.4,563C528.2,565.3,529.6,567.4,530.3,569.8C530.9,572.1,533.2,573.9,533.1,576.6C537.5,585.3,540.9,594.4,544.7,603.3C548.3,611.6,552.1,619.9,555.6,628.3C556.7,630.9,558,633.3,558.9,635.9C560.8,641.1,562.9,646.3,565.2,651.3C567.1,655.3,569.1,659.4,570.6,663.5C573.3,670.9,577,677.9,579.7,685.2C581.7,690.5,584.1,695.7,586.4,700.9C590.2,709.7,593.9,718.4,597.6,727.2C601.2,735.6,605,743.8,608.5,752.2C609.6,754.8,611.2,757.2,611.8,759.8C612.6,763,614.5,765.7,615.5,768.8C616.5,771.9,617.8,775.1,619.5,778.1C622.1,782.8,623.6,788,625.9,792.9C628,797.3,629.6,802,631.9,806.4C632.2,806.9,632.2,807.6,632.6,808.1C633.8,809.8,635.4,810.3,637.3,810C638.7,809.7,640.9,807.2,641,805.8C641,804.5,641,803.1,641,801.8L641,509.5L641,509.4z"/>
    <path fill="#002157" d="M591,771.4L591,773.9C591,774.9,590,775.7,589.6,775.7C587.4,775.7,585.1,776.7,583.2,774.6C574.1,764.6,563.3,756.1,554,746.3C550.7,742.8,547.3,739.3,543.7,736.1C532.4,726.1,522.4,714.8,511.2,704.7C501.3,695.8,492.6,685.8,482.7,677.1C472.4,668.2,463.6,657.7,453.4,648.8C443.3,640,434.6,629.7,424.5,620.9C416.4,613.8,409.4,605.6,401.3,598.6C390.9,589.8,381.9,579.6,372.2,570.2C370.3,568.3,367.8,567.3,366.1,564.9C364.7,562.8,362.2,561.2,360.3,559.4L354.3,553.4L348.3,547.4L342.3,541.4C340.6,539.6,337.6,539.2,337.1,536.2C334.5,535.5,333.3,533.2,331.5,531.6C329.5,529.8,327.7,527.9,325.8,526C323.9,524.1,322.3,522.5,320.5,520.7C318.6,518.8,316.6,517.1,314.9,515C313.3,513.1,311,512.1,309.2,510.5C307.9,509.3,307,508.1,307.3,506.3C307.4,505.5,307.3,504.6,307.3,503.8L307.3,217.4C307.3,216.4,307.4,215.4,307.3,214.4C307.1,212.7,308,211.2,309,210.2C310.1,209.2,314.1,210.5,315.3,211.6C316.4,212.5,316.6,213.8,317.2,214.8C319.3,218.6,321.3,222.4,323,226.4C327.6,237.2,332.8,247.7,337.7,258.3C339.7,262.6,342.3,266.8,343.7,271.3C345.4,276.7,349.3,281,350.2,286.6C353,290.2,354.3,294.6,356.2,298.6C358.9,304.5,361.7,310.3,364.4,316.2C366.2,320.1,368.3,324,370.1,327.8C374.8,337.8,379.4,347.9,384.1,358C389.5,369.6,394.9,381.2,400.3,392.8C404.9,402.6,409.4,412.4,414,422.1C417.9,430.3,421.7,438.6,425.3,446.9C427.7,452.4,430.6,457.7,433.1,463.2C436.1,469.8,439,476.4,442.1,482.9C447.4,493.9,452.4,505,458.3,515.6C462.4,522.9,465.9,530.5,470,537.8C473.7,544.2,476.6,551.1,480.2,557.5C484.7,565.5,488.5,573.7,493,581.7C496.6,588.2,499.9,594.8,503.1,601.5C504.5,604.4,506.2,607.2,507.8,610.1C509.4,613.1,510.9,616.2,512.6,619.1C514.2,621.9,515.5,624.9,517.1,627.7C520.5,633.6,523.1,639.9,526.5,645.8C530.9,653.3,534.3,661.2,538.5,668.8C542.7,676.4,546.3,684.2,550.6,691.8C554.8,699.4,558.4,707.3,562.6,714.8C566.8,722.4,570.4,730.3,574.7,737.8C578.4,744.3,581.4,751.1,585.1,757.5C586.1,759.3,587.4,760.8,588.2,762.7C589,764.5,588.9,766.7,590.8,768.2C591.7,768.9,591,770.4,591.2,771.5L591,771.5L591,771.4zM585,769.9C585.2,770.3,585.3,770.8,585.6,771C585.9,771.3,586.3,772.4,586.8,771.4C587.2,770.8,587.1,769.9,585.9,769.9C585.9,769.3,585.9,768.7,585.6,768C583.6,764.7,581.8,761.2,580,757.8C575.6,749.6,571.4,741.4,567,733.2C563.5,726.8,560.7,720.2,557,713.8C553,706.9,549.6,699.6,545.9,692.4C543.8,688.3,542,684,539.5,680.1C537,676.1,535.4,671.8,533,667.8C528.9,661.2,525.8,654.1,522.1,647.3C517.5,638.7,513.3,630,508.8,621.4C505.3,614.8,502.2,608.1,498.4,601.7C494.9,595.9,492.4,589.5,489,583.6C487,580.1,485.3,576.5,483.5,572.9C481.7,569.3,479.4,565.9,478,562.2C477,559.5,475.1,557.4,473.9,554.9C471,549.3,468.4,543.5,465.1,538C461,531.1,457.6,523.8,454.3,516.5C453.1,513.8,451.2,511.5,449.9,508.8C445.6,499.8,440.8,490.9,436.9,481.7C435.3,477.9,432.7,474.4,431.3,470.5C429,463.9,425.3,458,422.9,451.5C421.7,448.2,419.5,445.3,418,442C414.9,435.3,412.2,428.4,408.9,421.8C406.6,417.3,404.3,412.7,402.2,408.1C399.7,402.5,396.9,397,394.8,391.2C393.9,388.6,391.8,386.4,391.2,383.7C390.5,380.7,388.5,378.4,387.3,375.8C383.6,367.5,379.9,359.2,376,351C371.3,341.1,366.7,331.2,362.1,321.3C357.4,311.2,352.8,301.2,348.1,291.1C346.7,288.2,345.4,285.2,344,282.3C342.6,279.4,341.5,276.3,340,273.5C335.8,265.4,332.3,257,328.5,248.8C325,241.2,320.9,234,317.9,226.2C317,223.9,315.4,222,315,219.4C314.7,217.7,313.3,216.2,312.3,214.6C312.1,214.4,311.8,214.2,311.6,214C311.5,214.3,311.2,214.5,311.2,214.8L311.2,504.6C311,505.9,311.5,506.8,312.5,507.6C314,508.8,315.3,510.2,316.9,511.3C318.4,512.4,319.7,514,321.2,515.4C330.2,523.9,338.5,533.1,347.9,541.2C357.1,549.2,365.1,558.6,374.3,566.7C384.5,575.6,393.4,585.9,403.6,595C413.6,603.9,422.6,613.8,432.5,622.8C442.4,631.8,451.3,641.8,461.3,650.7C471.1,659.3,479.7,669.2,489.5,677.9C499.5,686.8,508.5,696.7,518.4,705.7C526.6,713.1,534,721.4,542.3,728.7C552.3,737.5,560.9,747.9,571.2,756.5C573.2,758.2,574.9,760.2,576.8,762C579,764.1,581,766.3,583.2,768.3C583.8,768.8,584.1,769.8,585.1,769.7L585.1,769.9L585,769.9z"/>
    <path fill="#022257" d="M668.9,501.4L668.9,205.1C668.9,200.3,669.5,199.8,674.3,200C675.7,200,676.5,200.8,676.9,201.8C679.4,207.9,682.6,213.7,684.9,220C685.3,221,685.7,222,686.2,222.9C690.8,231.5,693.7,240.8,698.6,249.3C699.1,253.1,701.6,256,703,259.5C704.4,262.9,706.3,266.2,707.7,269.6C710.9,277.8,715.4,285.4,718.1,293.8C718.7,295.7,720,297.3,720.9,299.1C724.5,306.8,727.8,314.6,731.4,322.2C734.5,328.7,737.4,335.4,740.3,342C744.3,351,748.2,360,752.3,369C755.3,375.6,758.2,382.2,761.2,388.8C764.2,395.5,767.3,402.2,770.4,409C773.6,416.2,776.7,423.4,780,430.5C783.1,437.4,786.5,444.1,789.5,451.1C792.5,458.2,795.8,465.2,799,472.1C802.2,479.1,805.6,486,808.5,493.1C809.6,495.8,810.8,498.5,812,501.1C813.5,504.4,813.5,507.5,812,510.8C807.6,520.3,803.4,529.9,799,539.4C796.7,544.3,794.2,549.1,792,554C787.3,564.9,782,575.5,777,586.3C772.4,596.2,767.7,606.1,763.1,616C758.4,626,753.8,636.1,749,646.1C744.9,654.9,740.8,663.7,736.9,672.5C734.5,678,731.5,683.2,729.1,688.8C724.6,699.1,719.7,709.2,715,719.4C710.5,729.2,705.9,739,701.2,748.7C696.8,757.7,692.8,766.9,688.6,775.9C686.3,780.8,684.2,785.8,681.7,790.5C680.6,792.6,680.3,794.9,679.1,796.9C678.2,798.4,677.5,799.9,676.2,801.2C675,802.3,673.9,802.8,672.3,802.7C669.8,802.5,669.2,802,669.1,799.5L669.1,501.2L668.9,501.4zM672.9,500.6L672.9,796.9C672.9,797.2,673.1,797.5,673.3,797.7C673.5,797.5,673.8,797.4,673.9,797.1C674.8,795,675.5,792.8,676.5,790.7C681.9,779.6,687,768.4,692.2,757.2C696.6,747.7,701.2,738.3,705.5,728.7C707.8,723.5,710.7,718.5,712.9,713.3C715.1,707.9,717.9,702.7,720.2,697.3C722.5,691.9,725.2,686.7,727.8,681.4C732,672.6,735.9,663.8,740,655C744.7,645,749.4,634.9,754.1,624.9C758.7,615,763.3,605.1,768,595.2C772.7,585.2,777.7,575.3,781.9,565C783.5,561.1,785.6,557.6,787.2,553.7C788.8,549.8,791,545.9,792.9,542.1C796.5,534.8,799.6,527.2,803,519.8C804.7,516.2,806.5,512.6,808.4,509C809.3,507.3,809.2,505.6,808.4,503.9C807.4,501.5,806.3,499.1,805.2,496.7C801.8,489.1,798.3,481.6,794.8,474C791.9,467.7,789.2,461.3,786.3,455C783.6,449.3,781.4,443.3,778.3,437.8C777.8,437,777.1,435.9,777.1,435.4C776.7,431.3,773.9,428.4,772.7,424.7C771.4,421,769.6,417.3,768,413.7C764.9,407,762.3,400,758.9,393.5C756.4,388.9,755.3,383.6,752,379.3C750.9,373.7,747.6,369.2,745.5,364C743.1,358,740.4,352.1,737.7,346.3C733.9,338.2,730.4,330,726.5,322C724,316.9,721.6,311.7,719.4,306.5C716,298.4,712,290.6,708.8,282.4C707.5,279,705.5,275.8,704.1,272.3C702.7,268.9,700.3,265.9,699.7,262.1C694.9,253.7,692,244.3,687.3,235.7C686.9,234.9,686.2,233.9,686.1,233.2C685.4,228.7,682.3,225.4,680.9,221.3C679.5,217.1,677.4,213.1,675.7,209C675.1,207.6,673.7,206.5,674,204.7C674,204.5,673.7,204.2,673.6,203.9C673.4,204.1,673.1,204.3,673.1,204.6L673.1,500.4L672.8,500.6L672.9,500.6z"/>
    <path fill="#012157" d="M641,509.4L641,805.7C641,807.2,638.7,809.7,637.3,809.9C635.4,810.3,633.8,809.7,632.6,808C632.2,807.4,632.2,806.8,631.9,806.3C629.7,801.9,628.1,797.2,625.9,792.8C623.6,787.9,622.1,782.7,619.5,778C617.8,775,616.6,771.8,615.5,768.7C614.5,765.6,612.6,762.9,611.8,759.7C611.2,757.1,609.6,754.7,608.5,752.1C605,743.7,601.2,735.5,597.6,727.1C593.9,718.3,590.1,709.5,586.4,700.8C584.1,695.6,581.7,690.4,579.7,685.1C576.9,677.7,573.3,670.8,570.6,663.4C569.1,659.3,567,655.2,565.2,651.2C562.9,646.2,560.8,641,558.9,635.8C558,633.2,556.6,630.8,555.6,628.2C552.1,619.8,548.3,611.6,544.7,603.2C540.9,594.3,537.5,585.2,533.1,576.5C533.1,573.8,531,572,530.3,569.7C529.6,567.2,528.2,565.2,527.4,562.9C525,555.9,521,549.5,519.1,542.4C518.9,541.7,518.5,541.3,518.2,540.8C516,536,513.8,531.3,511.9,526.4C510,521.5,507.9,516.7,505.9,511.9C504.5,508.5,503.2,505,501.3,501.8C499.5,498.7,499.7,495.6,501.3,492.3C504.5,486,507.7,479.6,510.5,473.1C512.8,467.7,515.6,462.5,518,457.2C521.5,449.8,524.4,442.2,528.1,434.9C532,427.3,535.4,419.6,538.9,411.9C543.5,401.8,548.3,391.8,553,381.7C557.6,371.8,562.3,361.9,566.9,352C571.6,342,576.2,331.9,581,321.9C585.2,313.1,589,304.2,593.2,295.5C595.7,290.2,598.5,285,600.7,279.6C603,274.2,605.8,269.1,608,263.6C610.2,258.3,613,253.4,615.3,248.1C619.6,238.4,623.9,228.7,628.9,219.2C630.1,216.9,630.9,214.3,632,212C633,209.9,634.4,208.7,637,209C639.2,209.3,640.9,210.8,641,213L641,509.3L641,509.4zM637,509.4L637,217.6C637,216.5,637.5,214.6,636.6,214.4C635.2,214.1,634.9,216,634.6,217.1C633.9,219.6,631.6,221.4,631.2,223.6C630.6,226.8,628.6,229.2,627.5,232.1C626.3,235.1,625.1,238.1,623.6,241C621.5,245.3,619.7,249.7,617.6,254C612.8,263.8,608.2,273.7,603.8,283.8C601.5,289,598.6,293.9,596.4,299.2C593.8,305.3,591,311.3,588.1,317.2C583.5,326.5,579.5,335.9,575,345.3C573.1,349.2,572,353.5,569.1,356.9C567.2,363.4,563.1,369.1,561.1,375.6C558.2,378.8,558.6,383.8,555.1,386.6C555.3,389.8,553.1,392.1,551.8,394.7C550.5,397.3,549.3,400,548.2,402.7C546.5,406.8,544.5,410.8,542.6,414.9C537.7,425.5,532.4,436,527.9,446.8C526.8,449.4,525.1,451.6,524.2,454.3C523.3,457.1,521.5,459.5,520.4,462.2C518,468.4,514.9,474.2,512.2,480.3C510.8,483.4,508.4,486,508.2,489.6C505.8,491.1,506.3,494.2,504.7,496.1C504.2,496.7,504,497.2,504.5,497.8C505.7,499.3,505.8,501.3,506.7,502.9C510.3,509.7,512.5,517.2,515.9,524.1C519.9,532.3,522.7,540.9,526.7,549.1C527.9,551.6,529.4,554.1,530.1,556.7C531,559.8,532.9,562.3,533.8,565.2C534.8,568.3,535.7,571.4,537.2,574.3C538.1,575.9,539.5,577.4,539.2,579.5C542,583.8,543,589,545.3,593.4C548.3,599,549.5,605.4,553.1,610.7C553.1,614.5,556,617.1,557.2,620.5C558.3,623.9,559.8,627.1,561.2,630.3C561.7,631.6,562.8,632.7,563.1,634C564.7,639.5,567,644.8,569.5,649.8C572.2,655.3,573.5,661.5,577.1,666.6C577.5,670.4,579.8,673.5,581.2,676.9C582.7,680.4,583.7,684.2,585.9,687.5C586.3,688.2,587,689,587.1,690C588.1,695.7,591.2,700.7,593.6,705.8C596.2,711.4,597.8,717.4,601,722.8C602.6,725.6,603.3,729.1,604.8,732.2C606.3,735.2,607,738.6,608.9,741.5C609.4,742.2,609.9,743.1,610.1,744C612.3,751.7,616.4,758.7,619.2,766.2C621.4,772.1,624.6,777.6,626.8,783.5C627.8,786.1,629.3,788.5,630,791.2C631.3,795.5,634,799.2,635.1,803.6C635.1,804.2,636,805,636.4,805C637.5,804.8,636.9,803.8,637,803.1L637,509.4z"/>
  </g>
</svg>
