<?xml version="1.0" encoding="UTF-8"?>
<svg id="Logo" xmlns="http://www.w3.org/2000/svg" viewBox="0 0 878.84 1106.23">
  <defs>
    <style>
      .cls-1 {
        fill: #06265b;
      }

      .cls-2 {
        fill: #eee6de;
      }
    </style>
  </defs>
  <path id="MND" class="cls-1" d="M55.37.04l248.7,506.89c1.32.29.86-.57,1.25-1.25,2.55-4.45,4.9-9.69,7.2-14.34C392.93,328.11,472.11,164.28,552.51,1.05l2.11-1.05,54.15.34,239.74,488.63,30.32,63.93c-19.59,42.95-40.63,85.22-61.33,127.64-66.45,136.14-132.91,272.32-199.97,408.16-1.98,4.02-5.89,13.5-8.2,16.48-.43.56-.7,1.01-1.51,1.02l-53.82.03-1.9-.63L56.32,628.42v476.82c0,.07-.88.95-.95.95H0V.04h55.37ZM49.36,1099.86v-474.93c0-.25,3.06-3.19,3.61-3.35,1.16-.34,4.91-.34,6.07,0,.56.16,7.48,6.66,8.68,7.77,4.91,4.55,9.37,9.64,14.21,14.26,158.56,151.21,315.61,304.16,473.96,455.64l1.9.63,44.97-.03c.82,0,1.08-.46,1.51-1.02,2.34-3.02,3.91-9.33,6.3-12.68,79.6-167.07,164.82-331.53,244.27-498.66,5.38-11.33,10.39-22.85,15.77-34.18l-15.77-34.61L603.71,6.67l-44.02-.34-2.11,1.05-245.89,502.09c-2.39,5.54-10.2,6.35-13.62,1.56C219.05,351.54,142.09,191.01,63.19,31.45c-4.16-8.42-8.27-16.9-12.88-25.09H7.28c-.07,0-.95.88-.95.95v1091.6c0,.07.88.95.95.95h42.08Z"/>
  <path id="Fill" class="cls-2" d="M49.36,1099.86H7.28c-.07,0-.95-.88-.95-.95V7.31c0-.07.88-.95.95-.95h43.03c4.61,8.19,8.72,16.67,12.88,25.09,78.89,159.55,155.86,320.09,234.87,479.58,3.42,4.79,11.24,3.98,13.62-1.56L557.57,7.38l2.11-1.05,44.02.34,251.13,512.04,15.77,34.61c-5.38,11.33-10.39,22.86-15.77,34.18-79.45,167.12-164.67,331.59-244.27,498.66-2.4,3.35-3.96,9.66-6.3,12.68-.43.56-.7,1.01-1.51,1.02l-44.97.03-1.9-.63c-158.35-151.49-315.4-304.43-473.96-455.64-4.85-4.62-9.3-9.71-14.21-14.26-1.2-1.11-8.12-7.61-8.68-7.77-1.16-.34-4.91-.34-6.07,0-.55.16-3.61,3.1-3.61,3.35v474.93ZM605.42,84.96c-.97.28-1.93,1.68-2.65,2.42v916.92c4.83,5.5,12.31,2.69,14.13-4.19l206.09-441.91c.39-3.32.75-7.41-.19-10.6l-206.94-458.78c-1.92-3.93-6.42-5.02-10.44-3.86ZM52.97,99.52c-1.09.32-2.36,2.25-3.28,3.05v453.7s422.38,407.87,422.38,407.87c7.72,4.84,14.82-.61,11.34-9.44l-220.7-422.24L62.29,102.59c-1.93-3.21-5.8-4.11-9.32-3.07ZM549.73,99.52c-1.04.31-3.13,2.83-3.74,3.86l-200.96,431.22.15,9.05,201.29,470.12c3.17,5.26,12.33,4.47,12.97-2.14l-.37-909.69c-1.21-2.9-6.76-3.18-9.35-2.42Z"/>
  <path id="M" class="cls-1" d="M52.97,99.52c3.52-1.04,7.39-.13,9.32,3.07l200.41,429.87,220.7,422.24c3.48,8.83-3.62,14.28-11.34,9.44L49.69,556.27V102.56c.92-.8,2.19-2.73,3.28-3.05ZM55.69,106.98v445.82c132.33,126.99,263.58,254.57,395.84,381.25,7.19,6.88,14.16,14.91,21.81,21.22.51.42,1.27,1.68,1.91.62l-218.87-419.64L58.13,110.55l-2.44-3.57ZM476.19,957.48v.63c.41-.21.41-.42,0-.63Z"/>
  <path id="N" class="cls-1" d="M549.73,99.52c2.59-.77,8.14-.48,9.35,2.42l.37,909.69c-.64,6.61-9.8,7.4-12.97,2.14l-201.29-470.12-.15-9.05,200.96-431.22c.61-1.03,2.7-3.55,3.74-3.86ZM553.08,1010.01V106.35l-201.82,432.53c61.56,143.93,122.87,287.95,184.44,431.88,5.1,11.93,9.97,24.1,15.38,35.88.44.96,1.04,3.03,2.01,3.37Z"/>
  <path id="D" class="cls-1" d="M605.42,84.96c4.02-1.17,8.52-.08,10.44,3.86l206.94,458.78c.94,3.2.59,7.28.19,10.6l-206.09,441.91c-1.83,6.87-9.3,9.69-14.13,4.19V87.38c.72-.73,1.68-2.13,2.65-2.42ZM608.77,91.79v907.45l54.97-116.84,153.22-329.56-208.19-461.05Z"/>
</svg>
